<?xml version="1.0" encoding="utf-8"?>
<svg viewBox="0 0 1200 800" xmlns="http://www.w3.org/2000/svg">
  <path id="Selection" stroke-width="1" d="M 599.581 655.108 C 607.077 649.274 611.997 640.258 618.013 632.974 C 618.013 632.974 656.689 583.67 656.689 583.67 C 656.689 583.67 668.5 569.584 668.5 569.584 C 668.5 569.584 690.612 541.41 690.612 541.41 C 690.612 541.41 697.696 531.348 697.696 531.348 C 697.696 531.348 714.187 512.232 714.187 512.232 C 714.187 512.232 744.219 472.989 744.219 472.989 C 744.219 472.989 755.245 459.908 755.245 459.908 C 755.245 459.908 778.144 430.731 778.144 430.731 C 778.144 430.731 785.228 420.668 785.228 420.668 C 785.228 420.668 798.267 405.575 798.267 405.575 C 798.267 405.575 805.35 395.512 805.35 395.512 C 805.35 395.512 815.612 383.439 815.612 383.439 C 815.612 383.439 832.504 361.303 832.504 361.303 C 832.504 361.303 841.963 350.235 841.963 350.235 C 841.963 350.235 852.616 336.148 852.616 336.148 C 852.616 336.148 865.675 320.05 865.675 320.05 C 865.675 320.05 872.759 309.987 872.759 309.987 C 872.759 309.987 885.798 294.895 885.798 294.895 C 885.798 294.895 892.881 284.833 892.881 284.833 C 892.881 284.833 903.143 272.758 903.143 272.758 C 903.143 272.758 926.042 243.579 926.042 243.579 C 926.042 243.579 933.125 233.518 933.125 233.518 C 933.125 233.518 943.388 221.443 943.388 221.443 C 943.388 221.443 960.28 199.308 960.28 199.308 C 960.28 199.308 990.674 162.078 990.674 162.078 C 990.674 162.078 1013.574 132.9 1013.574 132.9 C 1013.574 132.9 1022.317 120.825 1022.317 120.825 C 1022.317 120.825 1053.817 81.582 1053.817 81.582 C 1053.817 81.582 1060.9 71.522 1060.9 71.522 C 1060.9 71.522 1073.939 56.429 1073.939 56.429 C 1073.939 56.429 1080.258 47.373 1080.258 47.373 C 1080.258 47.373 1087.11 39.324 1087.11 39.324 C 1097.422 27.209 1106.044 13.273 1120.743 5.928 C 1157.758 -12.576 1201.152 14.974 1200.216 56.429 C 1199.652 81.302 1181.743 97.39 1167.798 115.795 C 1167.798 115.795 1149.438 138.937 1149.438 138.937 C 1149.438 138.937 1141.551 150.004 1141.551 150.004 C 1141.551 150.004 1122.273 173.146 1122.273 173.146 C 1122.273 173.146 1114.385 184.215 1114.385 184.215 C 1114.385 184.215 1104.928 195.283 1104.928 195.283 C 1104.928 195.283 1094.263 209.369 1094.263 209.369 C 1094.263 209.369 1077.955 229.492 1077.955 229.492 C 1077.955 229.492 1061.907 249.617 1061.907 249.617 C 1061.907 249.617 1054.823 259.678 1054.823 259.678 C 1054.823 259.678 1043.778 272.758 1043.778 272.758 C 1043.778 272.758 1021.662 300.932 1021.662 300.932 C 1021.662 300.932 1013.775 312 1013.775 312 C 1013.775 312 997.275 331.118 997.275 331.118 C 997.275 331.118 974.376 360.296 974.376 360.296 C 974.376 360.296 967.292 370.359 967.292 370.359 C 967.292 370.359 957.029 382.434 957.029 382.434 C 957.029 382.434 934.131 411.612 934.131 411.612 C 934.131 411.612 927.048 421.674 927.048 421.674 C 927.048 421.674 914.009 436.767 914.009 436.767 C 914.009 436.767 906.927 446.829 906.927 446.829 C 906.927 446.829 896.664 458.902 896.664 458.902 C 896.664 458.902 879.771 481.04 879.771 481.04 C 879.771 481.04 870.314 492.107 870.314 492.107 C 870.314 492.107 859.66 506.194 859.66 506.194 C 859.66 506.194 846.6 522.292 846.6 522.292 C 846.6 522.292 839.517 532.354 839.517 532.354 C 839.517 532.354 826.477 547.448 826.477 547.448 C 826.477 547.448 819.395 557.509 819.395 557.509 C 819.395 557.509 808.348 570.59 808.348 570.59 C 808.348 570.59 786.235 598.763 786.235 598.763 C 786.235 598.763 779.151 608.824 779.151 608.824 C 779.151 608.824 768.888 620.899 768.888 620.899 C 768.888 620.899 751.996 643.034 751.996 643.034 C 751.996 643.034 742.538 654.103 742.538 654.103 C 742.538 654.103 731.874 668.189 731.874 668.189 C 731.874 668.189 722.417 679.259 722.417 679.259 C 722.417 679.259 711.762 693.345 711.762 693.345 C 711.762 693.345 698.703 709.444 698.703 709.444 C 698.703 709.444 691.619 719.505 691.619 719.505 C 691.619 719.505 681.357 731.579 681.357 731.579 C 681.357 731.579 660.119 758.748 660.119 758.748 C 660.119 758.748 652.14 769.814 652.14 769.814 C 642.442 782.825 630.669 794.003 614.673 798.24 C 597.519 802.777 577.75 798.511 564.367 786.739 C 556.611 779.906 547.364 766.312 540.724 757.74 C 540.724 757.74 529.677 744.66 529.677 744.66 C 529.677 744.66 522.594 734.598 522.594 734.598 C 522.594 734.598 499.695 705.417 499.695 705.417 C 499.695 705.417 489.434 693.345 489.434 693.345 C 489.434 693.345 482.35 683.283 482.35 683.283 C 482.35 683.283 457.721 653.097 457.721 653.097 C 457.721 653.097 442.146 633.98 442.146 633.98 C 442.146 633.98 435.063 623.918 435.063 623.918 C 435.063 623.918 412.164 594.738 412.164 594.738 C 412.164 594.738 401.902 582.663 401.902 582.663 C 401.902 582.663 394.818 572.602 394.818 572.602 C 394.818 572.602 376.417 549.46 376.417 549.46 C 376.417 549.46 354.615 523.299 354.615 523.299 C 354.615 523.299 347.532 513.238 347.532 513.238 C 347.532 513.238 324.633 484.058 324.633 484.058 C 324.633 484.058 314.371 471.983 314.371 471.983 C 314.371 471.983 307.287 461.922 307.287 461.922 C 307.287 461.922 281.159 429.724 281.159 429.724 C 281.159 429.724 264.267 407.587 264.267 407.587 C 264.267 407.587 254.003 395.512 254.003 395.512 C 254.003 395.512 246.921 385.452 246.921 385.452 C 246.921 385.452 226.84 361.303 226.84 361.303 C 226.84 361.303 219.757 351.242 219.757 351.242 C 219.757 351.242 193.628 319.044 193.628 319.044 C 193.628 319.044 176.735 296.907 176.735 296.907 C 176.735 296.907 166.473 284.833 166.473 284.833 C 166.473 284.833 159.391 274.771 159.391 274.771 C 159.391 274.771 113.824 217.418 113.824 217.418 C 113.824 217.418 96.801 196.289 96.801 196.289 C 96.801 196.289 78.942 174.152 78.942 174.152 C 78.942 174.152 71.859 164.09 71.859 164.09 C 71.859 164.09 48.96 134.912 48.96 134.912 C 48.96 134.912 38.699 122.838 38.699 122.838 C 38.699 122.838 30.81 111.768 30.81 111.768 C 23.315 102.644 12.65 91.867 6.855 81.582 C -2.159 65.566 -2.321 44.464 6.302 28.255 C 21.192 0.284 57.573 -9.508 84.456 7.186 C 95.08 13.786 97.836 19.251 105.332 28.255 C 105.332 28.255 113.874 38.317 113.874 38.317 C 113.874 38.317 120.193 47.373 120.193 47.373 C 120.193 47.373 133.251 63.472 133.251 63.472 C 133.251 63.472 143.907 77.559 143.907 77.559 C 143.907 77.559 153.363 88.626 153.363 88.626 C 153.363 88.626 163.214 101.707 163.214 101.707 C 163.214 101.707 173.486 113.781 173.486 113.781 C 173.486 113.781 190.378 135.918 190.378 135.918 C 190.378 135.918 200.639 147.99 200.639 147.99 C 200.639 147.99 207.723 158.053 207.723 158.053 C 207.723 158.053 230.622 187.233 230.622 187.233 C 230.622 187.233 240.895 199.308 240.895 199.308 C 240.895 199.308 251.56 213.393 251.56 213.393 C 251.56 213.393 261.007 224.461 261.007 224.461 C 261.007 224.461 268.895 235.53 268.895 235.53 C 268.895 235.53 288.171 258.673 288.171 258.673 C 288.171 258.673 295.255 268.734 295.255 268.734 C 295.255 268.734 308.313 284.833 308.313 284.833 C 308.313 284.833 318.969 298.92 318.969 298.92 C 318.969 298.92 328.425 309.987 328.425 309.987 C 328.425 309.987 338.276 323.068 338.276 323.068 C 338.276 323.068 348.539 335.142 348.539 335.142 C 348.539 335.142 355.621 345.204 355.621 345.204 C 355.621 345.204 378.52 374.384 378.52 374.384 C 378.52 374.384 388.782 386.458 388.782 386.458 C 388.782 386.458 395.865 396.519 395.865 396.519 C 395.865 396.519 415.142 419.662 415.142 419.662 C 415.142 419.662 426.621 434.755 426.621 434.755 C 426.621 434.755 436.069 445.823 436.069 445.823 C 436.069 445.823 443.151 455.884 443.151 455.884 C 443.151 455.884 466.051 485.064 466.051 485.064 C 466.051 485.064 476.313 497.139 476.313 497.139 C 476.313 497.139 482.632 506.194 482.632 506.194 C 482.632 506.194 489.403 514.244 489.403 514.244 C 489.403 514.244 502.613 531.348 502.613 531.348 C 502.613 531.348 523.601 556.503 523.601 556.503 C 523.601 556.503 529.919 565.559 529.919 565.559 C 529.919 565.559 536.69 573.609 536.69 573.609 C 536.69 573.609 554.397 596.751 554.397 596.751 C 554.397 596.751 563.844 607.818 563.844 607.818 C 563.844 607.818 571.732 618.886 571.732 618.886 C 571.732 618.886 588.866 640.016 588.866 640.016 C 592.809 645.721 597.037 648.619 599.581 655.108 Z" style="paint-order: fill; fill-rule: nonzero; fill: rgb(85, 170, 218);" transform="matrix(0.9999999999999999, 0, 0, 0.9999999999999999, -1.4210854715202004e-14, -5.684341886080802e-14)"/>
</svg>